HIERARCHY
ROOT Pelvis
{
	OFFSET 0.000000 0.000000 0.000000
	CHANNELS 6 Xposition Yposition Zposition Xrotation Yrotation Zrotation
	JOINT LeftUpLeg_virtual
	{
		OFFSET 0.000000 0.000000 0.000000
		CHANNELS 3 Xrotation Yrotation Zrotation
		JOINT LeftUpLeg
		{
			OFFSET 18.735201 -5.666702 -4.541200
			CHANNELS 3 Xrotation Yrotation Zrotation
			JOINT LeftLeg
			{
				OFFSET -0.021200 -31.938179 0.493100
				CHANNELS 3 Xrotation Yrotation Zrotation
				JOINT LeftFoot
				{
					OFFSET 0.021200 -31.938179 -4.336299
					CHANNELS 3 Xrotation Yrotation Zrotation
					JOINT LeftToeBase
					{
						OFFSET 0.943001 -26.722000 15.023500
						CHANNELS 3 Xrotation Yrotation Zrotation
						End Site
						{
							OFFSET 0 0 0
						}
					}
				}
			}
		}
	}
	JOINT RightUpLeg_virtual
	{
		OFFSET 0.000000 0.000000 0.000000
		CHANNELS 3 Xrotation Yrotation Zrotation
		JOINT RightUpLeg
		{
			OFFSET -18.735201 -5.666702 -4.541200
			CHANNELS 3 Xrotation Yrotation Zrotation
			JOINT RightLeg
			{
				OFFSET 0.018946 -31.938133 0.493100
				CHANNELS 3 Xrotation Yrotation Zrotation
				JOINT RightFoot
				{
					OFFSET -0.018946 -31.938126 -4.336299
					CHANNELS 3 Xrotation Yrotation Zrotation
					JOINT RightToeBase
					{
						OFFSET -0.943001 -26.722004 15.023500
						CHANNELS 3 Xrotation Yrotation Zrotation
						End Site
						{
							OFFSET 0 0 0
						}
					}
				}
			}
		}
	}
	JOINT Hips_virtual
	{
		OFFSET 0.000000 0.000000 0.000000
		CHANNELS 3 Xrotation Yrotation Zrotation
		JOINT Hips
		{
			OFFSET -0.000000 -0.000000 -0.000000
			CHANNELS 3 Xrotation Yrotation Zrotation
			JOINT Spine
			{
				OFFSET 0.000000 10.199997 -0.299500
				CHANNELS 3 Xrotation Yrotation Zrotation
				JOINT Spine1
				{
					OFFSET 0.000000 11.900002 -1.516600
					CHANNELS 3 Xrotation Yrotation Zrotation
					JOINT Spine2
					{
						OFFSET 0.000000 13.600006 -2.842500
						CHANNELS 3 Xrotation Yrotation Zrotation
						JOINT Neck_virtual
						{
							OFFSET 0.000000 0.000000 0.000000
							CHANNELS 3 Xrotation Yrotation Zrotation
							JOINT Neck
							{
								OFFSET 0.000000 9.624100 -2.890100
								CHANNELS 3 Xrotation Yrotation Zrotation
								JOINT Head
								{
									OFFSET 0.000000 14.068802 -1.351900
									CHANNELS 3 Xrotation Yrotation Zrotation
									End Site
									{
										OFFSET 0 0 0
									}
								}
							}
						}
						JOINT LeftShoulder_virtual
						{
							OFFSET 0.000000 0.000000 0.000000
							CHANNELS 3 Xrotation Yrotation Zrotation
							JOINT LeftShoulder
							{
								OFFSET 15.263000 10.923401 -0.547700
								CHANNELS 3 Xrotation Yrotation Zrotation
								JOINT LeftArm
								{
									OFFSET 25.438599 -2.830597 -13.032500
									CHANNELS 3 Xrotation Yrotation Zrotation
									JOINT LeftForeArm
									{
										OFFSET 29.960503 0.000000 0.000000
										CHANNELS 3 Xrotation Yrotation Zrotation
										JOINT LeftHand
										{
											OFFSET 27.849251 0.000000 0.000000
											CHANNELS 3 Xrotation Yrotation Zrotation
											End Site
											{
												OFFSET 0 0 0
											}
										}
									}
								}
							}
						}
						JOINT RightShoulder_virtual
						{
							OFFSET 0.000000 0.000000 0.000000
							CHANNELS 3 Xrotation Yrotation Zrotation
							JOINT RightShoulder
							{
								OFFSET -15.263000 10.923401 -0.547700
								CHANNELS 3 Xrotation Yrotation Zrotation
								JOINT RightArm
								{
									OFFSET -25.438599 -2.830597 -13.032500
									CHANNELS 3 Xrotation Yrotation Zrotation
									JOINT RightForeArm
									{
										OFFSET -29.960503 0.000000 0.000000
										CHANNELS 3 Xrotation Yrotation Zrotation
										JOINT RightHand
										{
											OFFSET -27.849251 0.000000 0.000000
											CHANNELS 3 Xrotation Yrotation Zrotation
											End Site
											{
												OFFSET 0 0 0
											}
										}
									}
								}
							}
						}
					}
				}
			}
		}
	}
}
MOTION
Frames: 4
Frame Time: 0.03333333
-0.785774 111.053658 2.802055 0.000000 0.000000 0.000000 -87.617913 -1.541276 5.626907 -6.956577 20.789706 21.578130 8.006865 0.045289 -0.386976 2.977285 38.960878 -19.666155 0.000000 0.000000 0.000000 -88.423315 0.509043 5.802970 -7.674118 -17.935201 -19.893609 6.277508 -5.100107 -6.280663 22.236364 -20.957109 35.835510 0.000000 0.000000 0.000000 -88.034800 -0.575402 6.865057 0.074011 -2.864068 -3.932551 5.032940 0.998266 0.018958 1.124158 0.616201 -0.220561 0.000000 0.000000 0.000000 1.129686 -0.003832 -0.532767 -1.902790 1.151493 -3.265491 0.000000 0.000000 0.000000 0.862012 0.222722 -0.880526 1.566831 -7.817585 -3.463409 42.910353 -43.192409 -35.836387 -5.691499 -80.046634 -4.505387 0.000000 0.000000 0.000000 1.096329 0.235895 -0.544388 0.637225 4.616231 0.770204 -3.625818 0.337823 82.351714 179.705419 50.011577 -178.492951 0.000000 0.000000 0.000000 
-0.781598 111.050766 2.796478 0.000000 0.000000 0.000000 -87.624340 -1.529964 5.622599 -6.959628 20.792049 21.582848 8.014385 0.033723 -0.390761 2.957508 38.957015 -19.643827 0.000000 0.000000 0.000000 -88.430104 0.521399 5.800265 -7.661795 -17.934233 -19.896466 6.277198 -5.106761 -6.279036 22.217458 -20.952300 35.852735 0.000000 0.000000 0.000000 -88.041794 -0.568808 6.853968 0.073413 -2.859748 -3.926059 5.036311 1.001921 0.037937 1.126546 0.613567 -0.221417 0.000000 0.000000 0.000000 1.132873 -0.007871 -0.534603 -1.911462 1.165197 -3.253390 0.000000 0.000000 0.000000 0.870320 0.217405 -0.882967 1.563526 -7.816201 -3.454701 42.887881 -43.199871 -35.874841 -5.732191 -80.055486 -4.534886 0.000000 0.000000 0.000000 1.102648 0.231725 -0.546591 0.631934 4.634239 0.797143 -3.621068 0.336107 82.331872 179.702373 50.003023 -178.492801 0.000000 0.000000 0.000000 
-0.775892 111.046143 2.793823 0.000000 0.000000 0.000000 -87.635391 -1.511744 5.622465 -6.976916 20.788543 21.594611 8.036071 0.023572 -0.396945 2.951536 38.947931 -19.626977 0.000000 0.000000 0.000000 -88.441558 0.539421 5.801724 -7.653377 -17.931291 -19.904071 6.283491 -5.113883 -6.276495 22.203818 -20.943004 35.865880 0.000000 0.000000 0.000000 -88.051192 -0.556604 6.846176 0.073088 -2.855419 -3.918001 5.043273 1.005958 0.060281 1.128086 0.612398 -0.222492 0.000000 0.000000 0.000000 1.132452 -0.010167 -0.537028 -1.936804 1.181013 -3.240613 0.000000 0.000000 0.000000 0.878801 0.214170 -0.886141 1.560644 -7.794970 -3.451142 42.874409 -43.224634 -35.882778 -5.758026 -80.058771 -4.550262 0.000000 0.000000 0.000000 1.110092 0.229687 -0.549061 0.625730 4.629451 0.830153 -3.631171 0.355638 82.308151 179.700925 50.001896 -178.492951 0.000000 0.000000 0.000000 
-0.769391 111.041084 2.795776 0.000000 0.000000 0.000000 -87.647228 -1.490542 5.625242 -7.001612 20.778212 21.607356 8.061776 0.015373 -0.403170 2.961690 38.934455 -19.618436 0.000000 0.000000 0.000000 -88.453682 0.560965 5.807156 -7.652179 -17.925698 -19.915227 6.296462 -5.123252 -6.273804 22.197355 -20.934822 35.868977 0.000000 0.000000 0.000000 -88.059819 -0.541498 6.842217 0.071366 -2.852777 -3.911352 5.052308 1.010396 0.083639 1.127919 0.612589 -0.223679 0.000000 0.000000 0.000000 1.127661 -0.010744 -0.539951 -1.975667 1.197455 -3.228699 0.000000 0.000000 0.000000 0.885757 0.212844 -0.889557 1.559024 -7.755715 -3.451024 42.875024 -43.264812 -35.858039 -5.765849 -80.053075 -4.549578 0.000000 0.000000 0.000000 1.117081 0.229757 -0.551400 0.619676 4.602818 0.864148 -3.657298 0.396527 82.285864 179.700351 50.011690 -178.492801 0.000000 0.000000 0.000000 
